<svg width="98" height="98" viewBox="0 0 98 98" fill="none" xmlns="http://www.w3.org/2000/svg">
<path d="M14.3392 74.2666H18.1871V10.6718H14.3392V74.2666Z" fill="#2BE2B3"/>
<path d="M77.9189 74.2666H81.7668V10.6718H77.9189V74.2666Z" fill="#2BE2B3"/>
<path d="M74.0712 74.2666H70.1181V44.4908H16.2632V40.5378H74.0712V74.2666Z" fill="#2BE2B3"/>
<path d="M66.3604 74.2666H62.5125V52.2917H17.2251V48.2485H66.3604V74.2666Z" fill="#2BE2B3"/>
<path d="M58.6497 74.2666H54.7116V60.7841H17.2251V56.9362H58.6497V74.2666Z" fill="#2BE2B3"/>
<path d="M38.4183 74.2666H42.2662V58.8451H38.4183V74.2666Z" fill="#2BE2B3"/>
<path d="M29.7457 74.2666H33.5936V59.8071H29.7457V74.2666Z" fill="#2BE2B3"/>
<path d="M22.0499 74.2666H25.8978V58.8451H22.0499V74.2666Z" fill="#2BE2B3"/>
<path d="M22.0499 10.6718V44.4006H79.8579V40.4475H26.003V10.6718H22.0499Z" fill="#2BE2B3"/>
<path d="M30.7076 10.6718V36.6899H79.8429V32.6466H34.5705V10.6718H30.7076Z" fill="#2BE2B3"/>
<path d="M78.896 28.0172H37.4714V10.6718H41.4245V24.1543H78.911V28.0172H78.896Z" fill="#2BE2B3"/>
<path d="M53.8398 26.0932H57.6877V10.6718H53.8398V26.0932Z" fill="#2BE2B3"/>
<path d="M62.5126 25.1313H66.3604V10.6718H62.5126V25.1313Z" fill="#2BE2B3"/>
<path d="M70.2233 26.0932H74.0711V10.6718H70.2233V26.0932Z" fill="#2BE2B3"/>
<path d="M19.7353 78.1144V80.7147H16.5487V78.1144H14.3392V85.8252H16.654V83.1347H19.8405V85.8252H22.1552V78.1144H19.7353Z" fill="#2BE2B3"/>
<path d="M38.6138 78.1145H37.4564V85.8252H46.1291V83.6157H39.8613V80.2488H46.1291V78.0393H38.6138V78.1145Z" fill="#2BE2B3"/>
<path d="M79.4671 78.1144V81.3911L76.2806 78.1144H74.071V85.8252H76.3858V82.3531L79.5723 85.8252H81.887V78.1144H79.4671Z" fill="#2BE2B3"/>
<path d="M56.1545 78.1144V80.7147H52.3969V78.1144H49.9919V85.8252H52.5021V83.1347H56.2597V85.8252H58.7699V83.0295H56.4551L58.7699 80.7147V78.1144H56.1545Z" fill="#2BE2B3"/>
<path d="M33.2178 78.1144H26.1834H25.8978V85.8252H28.1073V84.1868H31.2938V85.8252H33.5033V78.1144H33.2178ZM31.384 81.8721H28.1975V80.3239H31.384V81.8721Z" fill="#2BE2B3"/>
<path d="M63.189 78.1144H62.5126V85.8251H63.0837H70.1181V83.6156H64.6319V83.0445H70.1181V80.835H64.6319V80.2638H70.1181V78.0543H63.1739V78.1144H63.189Z" fill="#2BE2B3"/>
</svg>
